<?xml version="1.0" standalone="no"?>
<!DOCTYPE svg PUBLIC "-//W3C//DTD SVG 20010904//EN"
 "http://www.w3.org/TR/2001/REC-SVG-20010904/DTD/svg10.dtd">
<svg version="1.0" xmlns="http://www.w3.org/2000/svg"
 width="215.000000pt" height="215.000000pt" viewBox="0 0 215.000000 215.000000"
 preserveAspectRatio="xMidYMid meet">
<metadata>
Created by potrace 1.11, written by Peter Selinger 2001-2013
</metadata>
<g transform="translate(0.000000,215.000000) scale(0.100000,-0.100000)"
fill="#000000" stroke="none">
<path d="M1122 2130 c-12 -12 -22 -24 -23 -28 0 -4 -2 -16 -4 -26 -11 -57 56
-104 112 -81 40 17 57 48 49 91 -12 61 -89 86 -134 44z"/>
<path d="M938 2095 c-2 -2 -17 -6 -33 -9 -68 -13 -282 -67 -301 -77 -60 -31
-45 -132 21 -145 18 -3 65 3 110 15 44 11 91 22 105 25 51 9 126 29 145 39 50
25 61 89 22 126 -22 20 -60 34 -69 26z"/>
<path d="M1345 1951 c-82 -21 -274 -68 -425 -105 -151 -36 -294 -71 -318 -78
-48 -12 -75 -43 -75 -84 0 -32 40 -73 73 -75 20 -2 182 35 390 88 14 3 33 8
43 10 10 1 91 21 180 44 89 22 173 43 187 46 91 16 177 45 193 64 20 25 22 77
2 103 -24 32 -87 28 -250 -13z"/>
<path d="M1765 1809 c-38 -10 -79 -21 -90 -23 -11 -2 -38 -9 -60 -14 -22 -6
-51 -13 -65 -15 -14 -3 -45 -11 -70 -18 -25 -7 -51 -14 -59 -15 -25 -5 -54
-42 -56 -71 -3 -37 10 -60 43 -77 24 -13 37 -12 107 5 44 10 89 21 100 23 11
3 58 14 105 26 47 11 92 22 100 24 117 27 153 61 129 123 -21 57 -65 65 -184
32z"/>
<path d="M344 1705 c-71 -30 -64 -137 10 -150 55 -11 105 25 106 75 0 58 -62
98 -116 75z"/>
<path d="M1874 1590 c-66 -26 -65 -125 1 -150 95 -36 164 99 74 145 -31 17
-44 18 -75 5z"/>
<path d="M685 1545 c-11 -3 -181 -43 -211 -49 -11 -3 -93 -23 -184 -45 -135
-34 -169 -46 -188 -67 -29 -33 -24 -80 12 -111 30 -26 11 -28 311 43 306 73
331 80 350 106 43 62 -19 147 -90 123z"/>
<path d="M1625 1530 c-35 -9 -243 -59 -271 -64 -50 -10 -232 -58 -255 -67 -46
-18 -62 -77 -31 -116 24 -31 60 -42 101 -31 18 5 41 11 50 13 9 2 43 10 76 18
33 9 71 18 85 21 14 2 97 23 185 45 172 43 195 56 195 113 0 60 -57 89 -135
68z"/>
<path d="M1880 1349 c-85 -21 -166 -41 -180 -43 -133 -28 -364 -92 -381 -107
-14 -12 -21 -30 -21 -55 0 -50 30 -78 79 -77 21 0 180 35 353 78 173 42 323
78 332 80 74 16 103 91 53 140 -31 32 -47 31 -235 -16z"/>
<path d="M505 1259 c-112 -29 -131 -34 -175 -43 -14 -3 -38 -9 -55 -13 -16 -4
-32 -7 -35 -8 -80 -15 -200 -52 -218 -68 -31 -28 -30 -80 3 -112 29 -30 44
-31 148 -4 45 11 89 22 97 24 8 2 83 20 165 40 83 20 164 39 180 42 63 10 101
53 90 103 -15 68 -56 76 -200 39z"/>
<path d="M2025 1141 c-38 -10 -168 -42 -287 -71 -197 -47 -220 -54 -236 -78
-9 -15 -17 -34 -16 -42 1 -8 2 -23 3 -33 1 -23 60 -58 88 -52 13 3 33 7 46 10
13 3 97 23 188 46 90 23 169 42 174 43 6 1 45 11 88 21 l78 19 -3 75 c-3 73
-4 76 -28 78 -14 1 -56 -7 -95 -16z"/>
<path d="M789 1086 c-2 -3 -16 -7 -29 -9 -14 -3 -45 -10 -70 -17 -25 -7 -53
-14 -62 -16 -21 -5 -3 0 -263 -64 -116 -28 -221 -54 -234 -56 -75 -15 -99 -93
-44 -142 32 -29 44 -27 243 23 163 41 175 44 210 51 14 3 70 17 125 31 55 14
113 27 130 30 45 7 85 31 94 56 11 30 4 68 -18 90 -17 17 -72 33 -82 23z"/>
<path d="M1005 893 c-27 -7 -59 -15 -70 -17 -11 -2 -76 -18 -145 -36 -69 -17
-136 -34 -150 -36 -103 -20 -176 -45 -192 -66 -25 -33 -23 -74 7 -103 30 -31
52 -31 173 -1 53 14 108 27 122 29 14 3 43 10 65 16 22 6 96 24 164 41 132 32
156 45 164 88 4 21 -15 82 -26 82 -1 0 -16 4 -32 8 -19 6 -48 4 -80 -5z"/>
<path d="M1970 884 c-30 -8 -66 -17 -80 -20 -36 -7 -378 -92 -420 -104 -80
-22 -87 -135 -9 -155 15 -4 99 12 214 40 104 25 198 47 209 50 164 34 205 51
221 89 17 39 2 82 -36 101 -32 17 -27 17 -99 -1z"/>
<path d="M229 690 c-31 -31 -38 -73 -16 -101 50 -65 151 -35 151 46 0 44 -28
74 -73 80 -27 3 -39 -2 -62 -25z"/>
<path d="M1765 578 c-31 -28 -39 -62 -20 -97 18 -36 52 -50 92 -39 63 17 83
88 38 133 -31 32 -75 32 -110 3z"/>
<path d="M735 565 c-5 -2 -100 -24 -210 -50 -110 -26 -213 -52 -228 -57 -49
-19 -67 -84 -33 -127 27 -35 55 -33 275 19 119 29 229 57 245 63 50 19 66 96
27 131 -17 15 -59 27 -76 21z"/>
<path d="M1450 513 c-74 -18 -144 -35 -155 -37 -11 -3 -112 -27 -225 -55 -113
-27 -258 -62 -323 -78 -64 -15 -126 -35 -138 -44 -12 -9 -23 -31 -26 -52 -4
-30 0 -41 22 -63 34 -34 59 -31 305 30 102 25 259 64 350 86 91 22 209 51 263
64 54 13 106 31 117 41 28 25 35 69 15 99 -29 44 -57 46 -205 9z"/>
<path d="M1360 249 c-125 -32 -159 -44 -177 -65 -25 -28 -28 -41 -13 -78 8
-21 58 -58 75 -56 2 1 26 7 52 15 27 8 62 17 78 20 17 3 73 16 125 30 99 25
142 54 135 92 -2 10 -4 24 -4 31 -1 6 -10 21 -21 32 -28 28 -69 25 -250 -21z"/>
<path d="M984 155 c-18 -7 -36 -26 -44 -45 -29 -71 50 -137 119 -99 36 20 50
79 28 112 -23 35 -66 48 -103 32z"/>
</g>
</svg>
