<svg xmlns="http://www.w3.org/2000/svg" xmlns:xlink="http://www.w3.org/1999/xlink" width="201.151" height="65.273" viewBox="0 0 201.151 65.273">
  <defs>
    <clipPath id="clip-path">
      <path id="Path_10" data-name="Path 10" d="M67.211,33.94a2.427,2.427,0,1,1,1.14,4.718L51.711,42.7a2.427,2.427,0,0,1-1.14-4.718ZM12.717,52.155a2.427,2.427,0,1,1-1.14-4.718l.167-.039a2.427,2.427,0,0,1,1.14,4.718ZM34.935,68.962a2.427,2.427,0,0,1-1.14-4.718l.167-.039a2.427,2.427,0,1,1,1.14,4.718Zm16.274-3.948a2.427,2.427,0,0,1-1.14-4.718l.167-.039a2.427,2.427,0,1,1,1.14,4.718ZM59.3,55.652a2.427,2.427,0,1,1-1.14-4.718l.167-.039a2.427,2.427,0,1,1,1.14,4.718ZM51.166,52.63a2.427,2.427,0,1,1,1.14,4.718L24.211,64.166a2.427,2.427,0,0,1-1.14-4.718Zm14.606-5.947a2.427,2.427,0,1,1-1.14-4.718l.167-.039a2.427,2.427,0,0,1,1.14,4.718ZM60.8,30.595a2.427,2.427,0,1,0-1.789,2.929A2.427,2.427,0,0,0,60.8,30.595ZM36.343,46.426a2.427,2.427,0,1,1-1.14-4.718l.167-.039a2.427,2.427,0,0,1,1.14,4.718ZM27.793,36.107a2.427,2.427,0,1,1,1.14,4.718L8.271,45.838a2.427,2.427,0,0,1-1.14-4.718ZM25,31.882a2.427,2.427,0,1,0-1.789,2.929A2.427,2.427,0,0,0,25,31.882ZM9.076,30.844a2.427,2.427,0,0,1-1.14-4.718l16.64-4.037a2.427,2.427,0,0,1,1.14,4.718Zm29.511.237a2.427,2.427,0,1,1-1.14-4.718l16.64-4.037a2.427,2.427,0,1,1,1.14,4.718ZM61.073,20.634a2.427,2.427,0,1,1,1.14,4.718l-.167.039a2.427,2.427,0,1,1-1.14-4.718ZM22.62,20.159a2.427,2.427,0,0,1-1.14-4.718l28.1-6.819a2.427,2.427,0,0,1,1.14,4.718ZM34.795,7.312a2.427,2.427,0,1,0-1.789,2.929A2.427,2.427,0,0,0,34.795,7.312ZM25.946,51.879a2.427,2.427,0,0,1,1.14,4.718L14,59.771a2.427,2.427,0,0,1-1.14-4.718Z" transform="translate(-5.274 -5.454)"/>
    </clipPath>
    <linearGradient id="linear-gradient" x1="-0.192" y1="0.944" x2="0.89" y2="0.25" gradientUnits="objectBoundingBox">
      <stop offset="0" stop-color="#5facc2"/>
      <stop offset="1" stop-color="#0af6b6"/>
    </linearGradient>
  </defs>
  <g id="swlogo" transform="translate(-0.924 -1.094)">
    <g id="Group_1" data-name="Group 1" transform="translate(87.258 12.641)">
      <path id="Path_2" data-name="Path 2" d="M415.167,30.79H414.6a7.7,7.7,0,0,0-4.492,1.334,1.218,1.218,0,0,0-1.21-1.085h-2.4a1.217,1.217,0,0,0-1.217,1.217v.44a1.216,1.216,0,0,0,1.132,1.214l.646.047V46.228l-.646.047a1.219,1.219,0,0,0-1.132,1.214v.44a1.217,1.217,0,0,0,1.217,1.217h2.4a1.214,1.214,0,0,0,1.217-1.206l0-9.569a4.286,4.286,0,0,1,4.174-4.578h.879a1.217,1.217,0,0,0,1.217-1.217v-.564A1.223,1.223,0,0,0,415.167,30.79Z" transform="translate(-334.335 -30.786)" fill="#fefefe"/>
      <path id="Path_3" data-name="Path 3" d="M294.517,31.44h-2.684a1.217,1.217,0,0,0-1.217,1.217v.44a1.216,1.216,0,0,0,1.132,1.214l.179.012L288.55,43.79,284.42,32.249a1.222,1.222,0,0,0-1.147-.805h-.657a1.222,1.222,0,0,0-1.147.805l-4.131,11.537-4.1-11.533a1.217,1.217,0,0,0-1.147-.809h-2.256a1.217,1.217,0,0,0-1.217,1.217v.44a1.216,1.216,0,0,0,1.132,1.214l.972.07,5.138,14.357a1.226,1.226,0,0,0,1.147.809h.657a1.222,1.222,0,0,0,1.147-.805L282.949,37.2l4.135,11.548a1.222,1.222,0,0,0,1.147.805h.657a1.222,1.222,0,0,0,1.147-.805l5.64-15.667a1.229,1.229,0,0,0-.148-1.112A1.243,1.243,0,0,0,294.517,31.44Z" transform="translate(-250.83 -31.183)" fill="#fefefe"/>
      <path id="Path_4" data-name="Path 4" d="M230.074,38.373l-.159-.016a6.439,6.439,0,0,1-3.123-.8,1.629,1.629,0,0,1-.568-1.389c0-.716,0-2.388,3.7-2.388h.187c1.953,0,3.088.774,3.376,2.3a1.218,1.218,0,0,0,1.2.992h.665a1.22,1.22,0,0,0,1.2-1.42,5.746,5.746,0,0,0-5.971-4.87h-1.128c-3.824,0-6.293,2.054-6.293,5.228a4.872,4.872,0,0,0,1.626,3.878,8.538,8.538,0,0,0,4.846,1.517l.156.016c1.933.222,3.151.634,3.707,1.256a1.847,1.847,0,0,1,.416,1.3c0,1.322-.28,2.415-3.7,2.415H229.4c-1.424,0-3.174-.459-3.423-2.641a1.22,1.22,0,0,0-1.21-1.081H224.1a1.222,1.222,0,0,0-1.214,1.346,5.83,5.83,0,0,0,6.033,5.372h1.754c4,0,6.293-1.918,6.293-5.259a5.023,5.023,0,0,0-1.167-3.516C234.45,39.026,232.035,38.583,230.074,38.373Z" transform="translate(-222.884 -30.78)" fill="#fefefe"/>
      <path id="Path_5" data-name="Path 5" d="M472.232,46.279l-.019-8.067c0-5.477-3.392-7.421-6.293-7.421h-1.754a5.668,5.668,0,0,0-4.671,2.342,5.819,5.819,0,0,0-4.854-2.342h-1.754a5.747,5.747,0,0,0-3.322,1.015,1.217,1.217,0,0,0-1.132-.762h-2.4a1.217,1.217,0,0,0-1.217,1.217v.44a1.216,1.216,0,0,0,1.132,1.214l.646.047V46.232l-.646.047a1.219,1.219,0,0,0-1.132,1.214v.44a1.217,1.217,0,0,0,1.217,1.217h2.4a1.217,1.217,0,0,0,1.217-1.217l0-9.557c0-3,1.28-4.578,3.7-4.578h.813c1.723,0,3.7.529,3.7,4.644v9.495a1.217,1.217,0,0,0,1.217,1.217h1.723a1.217,1.217,0,0,0,1.217-1.217V47.5a1.216,1.216,0,0,0-1.077-1.21l-.019-7.908c0-3,1.28-4.578,3.7-4.578h.813c1.723,0,3.7.529,3.7,4.644v9.495a1.217,1.217,0,0,0,1.217,1.217h1.723a1.217,1.217,0,0,0,1.217-1.217V47.5A1.213,1.213,0,0,0,472.232,46.279Z" transform="translate(-358.489 -30.786)" fill="#fefefe"/>
      <path id="Path_6" data-name="Path 6" d="M365.013,46.364h-.782c-.074,0-.128,0-.171-.008a2.649,2.649,0,0,1-.019-.373V38.211c0-4.648-2.353-7.421-6.293-7.421h-1.754c-3.94,0-6.293,2.773-6.293,7.421v3.73c0,4.668,2.353,7.453,6.293,7.453h1.754a5.883,5.883,0,0,0,3.777-1.221,3.009,3.009,0,0,0,2.711,1.19h.782a1.217,1.217,0,0,0,1.217-1.217v-.564A1.223,1.223,0,0,0,365.013,46.364Zm-4.037-4.578c0,4.053-1.781,4.609-3.7,4.609h-.813c-1.921,0-3.7-.56-3.7-4.609V38.371c0-4.026,1.781-4.578,3.7-4.578h.813c1.922,0,3.7.556,3.7,4.582Z" transform="translate(-300.373 -30.786)" fill="#fefefe"/>
    </g>
    <path id="Path_7" data-name="Path 7" d="M313.622,115.131l-5.372-9.051,5.255-5.613h-2.322v.428l1.039.117-7.429,7.884V94.38h-2.213v.428l1.6.121v20.2l-1.6.121v.428h2.205l0-5.932,3.007-3.193,5.422,9.129h1.459v-.428Zm-17.671-4.049c-.428,3.318-2.221,4.839-4.714,4.839h-1.7c-2.921,0-4.928-1.886-4.928-6.056v-3.621c0-4.139,2.007-6.025,4.928-6.025h1.7c2.493,0,4.29,1.521,4.714,4.808h-.638c-.424-2.952-1.949-4.259-4.535-4.259h-.79c-3.135,0-4.776,1.7-4.776,5.628v3.318c0,3.956,1.641,5.659,4.776,5.659h.79c2.618,0,4.107-1.307,4.535-4.29Zm-29.476-3.5V106.4c0-3.925,1.641-5.628,4.776-5.628h.79c3.1,0,4.776,1.7,4.776,5.691v1.124Zm4.321-7.363c-2.921,0-4.928,1.886-4.928,6.025v3.621c0,4.17,2.007,6.056,4.928,6.056h1.7c2.384,0,4.107-1.252,4.714-3.96h-.642c-.552,2.361-2.05,3.411-4.528,3.411h-.79c-3.135,0-4.776-1.7-4.776-5.659v-1.583h10.953v-1.886c0-4.139-2.038-6.025-4.928-6.025Zm-13.166,14.909v-8.884c0-4.139-2.19-6.025-4.928-6.025H251a4.512,4.512,0,0,0-4.321,3.174V94.38h-2.213v.428l1.6.121v20.2l-1.6.121v.428h2.213l0-9.281c0-3.925,2.1-5.628,4.776-5.628h.79c2.952,0,4.776,1.7,4.776,5.691v9.218h1.673v-.428Zm-20.354-4.049c-.428,3.318-2.221,4.839-4.714,4.839h-1.7c-2.921,0-4.928-1.886-4.928-6.056v-3.621c0-4.139,2.007-6.025,4.928-6.025h1.7c2.493,0,4.29,1.521,4.714,4.808h-.638c-.424-2.952-1.949-4.259-4.531-4.259h-.79c-3.135,0-4.776,1.7-4.776,5.628v3.318c0,3.956,1.641,5.659,4.776,5.659h.79c2.618,0,4.107-1.307,4.531-4.29Z" transform="translate(-137.487 -57.001)" fill="#0bf6ee"/>
    <path id="Path_8" data-name="Path 8" d="M313.622,115.131l-5.372-9.051,5.255-5.613h-2.322v.428l1.039.117-7.429,7.884V94.38h-2.213v.428l1.6.121v20.2l-1.6.121v.428h2.205l0-5.932,3.007-3.193,5.422,9.129h1.459v-.428Zm-17.671-4.049c-.428,3.318-2.221,4.839-4.714,4.839h-1.7c-2.921,0-4.928-1.886-4.928-6.056v-3.621c0-4.139,2.007-6.025,4.928-6.025h1.7c2.493,0,4.29,1.521,4.714,4.808h-.638c-.424-2.952-1.949-4.259-4.535-4.259h-.79c-3.135,0-4.776,1.7-4.776,5.628v3.318c0,3.956,1.641,5.659,4.776,5.659h.79c2.618,0,4.107-1.307,4.535-4.29Zm-29.476-3.5V106.4c0-3.925,1.641-5.628,4.776-5.628h.79c3.1,0,4.776,1.7,4.776,5.691v1.124Zm4.321-7.363c-2.921,0-4.928,1.886-4.928,6.025v3.621c0,4.17,2.007,6.056,4.928,6.056h1.7c2.384,0,4.107-1.252,4.714-3.96h-.642c-.552,2.361-2.05,3.411-4.528,3.411h-.79c-3.135,0-4.776-1.7-4.776-5.659v-1.583h10.953v-1.886c0-4.139-2.038-6.025-4.928-6.025Zm-13.166,14.909v-8.884c0-4.139-2.19-6.025-4.928-6.025H251a4.512,4.512,0,0,0-4.321,3.174V94.38h-2.213v.428l1.6.121v20.2l-1.6.121v.428h2.213l0-9.281c0-3.925,2.1-5.628,4.776-5.628h.79c2.952,0,4.776,1.7,4.776,5.691v9.218h1.673v-.428Zm-20.354-4.049c-.428,3.318-2.221,4.839-4.714,4.839h-1.7c-2.921,0-4.928-1.886-4.928-6.056v-3.621c0-4.139,2.007-6.025,4.928-6.025h1.7c2.493,0,4.29,1.521,4.714,4.808h-.638c-.424-2.952-1.949-4.259-4.531-4.259h-.79c-3.135,0-4.776,1.7-4.776,5.628v3.318c0,3.956,1.641,5.659,4.776,5.659h.79c2.618,0,4.107-1.307,4.531-4.29Z" transform="translate(-137.487 -57.001)" fill="none" stroke="#fefefe" stroke-linecap="round" stroke-linejoin="round" stroke-miterlimit="22.926" stroke-width="3.039"/>
    <path id="Path_9" data-name="Path 9" d="M62.056,39.281A2.427,2.427,0,1,1,63.2,44l-16.64,4.037a2.427,2.427,0,0,1-1.14-4.718Zm-29.515-.237a2.427,2.427,0,1,1,1.14,4.718L17.041,47.8a2.427,2.427,0,1,1-1.14-4.718Zm10.8-5.025A2.427,2.427,0,1,1,42.2,29.3l20.662-5.014A2.427,2.427,0,1,1,64,29ZM3.921,36.185a2.427,2.427,0,1,1-1.14-4.718l16.636-4.037a2.427,2.427,0,0,1,1.14,4.718Zm7.912-21.712a2.427,2.427,0,1,1,1.14,4.718l-.167.039a2.427,2.427,0,0,1-1.14-4.718Zm9.23-4.644a2.427,2.427,0,0,1-1.14-4.718l9.288-2.252a2.427,2.427,0,0,1,1.14,4.718ZM36.2,1.162a2.427,2.427,0,0,1,1.14,4.718l-.167.039A2.427,2.427,0,0,1,36.03,1.2ZM45.338,18.74a2.427,2.427,0,0,1-1.14-4.718l13.089-3.174a2.427,2.427,0,1,1,1.14,4.718Zm2.073,38.892a2.427,2.427,0,0,1,1.14,4.718L39.262,64.6a2.427,2.427,0,0,1-1.14-4.718Z" fill="#414c6e"/>
    <g id="Group_3" data-name="Group 3" transform="translate(2.616 2.79)">
      <g id="Group_2" data-name="Group 2" clip-path="url(#clip-path)">
        <rect id="Rectangle_1" data-name="Rectangle 1" width="65.428" height="64.07" transform="translate(-0.247 -0.247)" fill="url(#linear-gradient)"/>
      </g>
    </g>
  </g>
</svg>
