<svg id="Warstwa_1" data-name="Warstwa 1" xmlns="http://www.w3.org/2000/svg" viewBox="0 0 300 70"><defs><style>.cls-1{fill:#39ffcb;}.cls-2{fill:#eae3e1;}</style></defs><path class="cls-1" d="M23.69,49a2.19,2.19,0,0,1,2.64,1.54,2.09,2.09,0,0,1-1.61,2.53L12.89,55.82a2.21,2.21,0,0,1-2.65-1.55,2.09,2.09,0,0,1,1.62-2.52ZM46.51,60.34l-8.39,1.95a2.21,2.21,0,0,1-2.65-1.55,2.1,2.1,0,0,1,1.62-2.53l8.39-1.94.15,0a2.21,2.21,0,0,1,2.65,1.55,2.1,2.1,0,0,1-1.62,2.53ZM31,9.42l-.21-.15,0,0h0l0,0,0,0,0,0,0,0-.05,0-.05,0-.05,0-.05,0,0,0h0l-.06,0H29l-8.4,1.94A2.1,2.1,0,0,0,19,13.47,2.18,2.18,0,0,0,21.67,15l8.4-1.94a2.09,2.09,0,0,0,1.61-2.53,1.9,1.9,0,0,0-.14-.4l0-.05a.41.41,0,0,0-.05-.09h0l0,0,0-.05,0,0,0,0,0,0,0,0,0,0,0,0,0,0,0,0,0,0,0,0,0,0,0,0ZM20.68,21.63A2.21,2.21,0,0,1,18,20.09a2.09,2.09,0,0,1,1.62-2.53L45,11.68a2.18,2.18,0,0,1,2.64,1.54,2.08,2.08,0,0,1-1.61,2.53ZM55.42,22a2.21,2.21,0,0,1,2.65,1.54,2.09,2.09,0,0,1-1.62,2.53l-.15,0a2.18,2.18,0,0,1-2.64-1.54,2.1,2.1,0,0,1,1.61-2.53Zm-20.31,9a2.2,2.2,0,0,1-2.65-1.55A2.09,2.09,0,0,1,34.08,27l15-3.49A2.21,2.21,0,0,1,51.76,25a2.09,2.09,0,0,1-1.62,2.53ZM8.44,30.85a2.21,2.21,0,0,1-2.65-1.54,2.09,2.09,0,0,1,1.62-2.53l15-3.48a2.2,2.2,0,0,1,2.65,1.54,2.09,2.09,0,0,1-1.62,2.53Zm16.91,4.54A2.2,2.2,0,0,1,28,36.94a2.08,2.08,0,0,1-1.61,2.52L7.72,43.79a2.21,2.21,0,0,1-2.65-1.54,2.09,2.09,0,0,1,1.62-2.53Zm6.7,4.84.15,0a2.19,2.19,0,0,1,2.64,1.55,2.08,2.08,0,0,1-1.61,2.52l-.15,0-15,3.48a2.2,2.2,0,0,1-2.65-1.54A2.09,2.09,0,0,1,17,43.71Zm27.62,4.29h0L44.71,48a2.21,2.21,0,0,1-2.65-1.55,2.09,2.09,0,0,1,1.62-2.52l15-3.49h0l.07,0A2.19,2.19,0,0,1,61.43,42a2.09,2.09,0,0,1-1.61,2.53Zm-13.2,5.13a2.2,2.2,0,0,1,2.65,1.55,2.08,2.08,0,0,1-1.62,2.52L22.12,59.61a2.2,2.2,0,0,1-2.65-1.54,2.09,2.09,0,0,1,1.62-2.53Zm7.35,2.61a2.21,2.21,0,0,1-2.65-1.54,2.09,2.09,0,0,1,1.62-2.53l.15,0a2.19,2.19,0,0,1,2.64,1.54A2.08,2.08,0,0,1,54,52.23Zm-22,11.49a2.2,2.2,0,0,1-2.65-1.54,2.09,2.09,0,0,1,1.62-2.53l.14,0a2.2,2.2,0,0,1,2.65,1.55A2.08,2.08,0,0,1,32,63.71ZM11.73,49.25A2.19,2.19,0,0,1,9.09,47.7a2.09,2.09,0,0,1,1.61-2.53l.15,0a2.21,2.21,0,0,1,2.65,1.54,2.09,2.09,0,0,1-1.62,2.53ZM61,33.52a2.21,2.21,0,0,1,2.65,1.55A2.1,2.1,0,0,1,62,37.6L47,41.08a2.21,2.21,0,0,1-2.65-1.54A2.09,2.09,0,0,1,45.94,37ZM43.61,22.7A2.2,2.2,0,0,1,41,21.16a2.1,2.1,0,0,1,1.62-2.53L54.4,15.89a2.2,2.2,0,0,1,2.65,1.54A2.09,2.09,0,0,1,55.43,20ZM35.35,7.54A2.19,2.19,0,0,1,38,9.08a2.1,2.1,0,0,1-1.62,2.53l-.15,0a2.21,2.21,0,0,1-2.65-1.54A2.09,2.09,0,0,1,35.2,7.57ZM13.34,19A2.19,2.19,0,0,1,16,20.57a2.08,2.08,0,0,1-1.61,2.52l-.15,0a2.2,2.2,0,0,1-2.65-1.55,2.09,2.09,0,0,1,1.62-2.52ZM6.19,37.76a2.2,2.2,0,0,1-2.65-1.54,2.09,2.09,0,0,1,1.61-2.53l15-3.49h1l.05,0h.11l.05,0,0,0,.05,0h.05l0,0,.05,0,.05,0,0,0,.05,0,.05,0,0,0,0,0,.05,0,0,0,0,0,0,0,0,0,0,0,0,0,0,0,0,0,0,0h0l0,0,0,0,0,0,0,0a2.05,2.05,0,0,1,.36.76,2.09,2.09,0,0,1-1.61,2.53ZM41.8,35.89a2.21,2.21,0,0,1-2.65-1.54,2.09,2.09,0,0,1,1.62-2.53l18.67-4.33A2.19,2.19,0,0,1,62.08,29a2.1,2.1,0,0,1-1.61,2.53Z"/><path class="cls-2" d="M120.71,30.48h9v3.21h-2.24L123.1,48.33h-4.27l-4-10.18-4.23,10.18h-4.11l-4.62-14.64H99.81V30.48h8.92v3.21h-3l3.21,11.12s3.28-8.72,3.83-10.26a22.27,22.27,0,0,0,.85-3.15h3s.24,1.36.68,3c.39,1.49,3.47,10.35,3.47,10.35l3-11.08h-3.06Z"/><path class="cls-2" d="M135.57,36.66H132.4a5.73,5.73,0,0,1-.55-2.5c0-2.39,2.19-4.08,7-4.08,5.56,0,6.85,1.81,6.85,6.7v7.36c0,.82.43,1.17,1.05,1.17a5.58,5.58,0,0,0,1.22-.15v3.17a11.88,11.88,0,0,1-2.39.23c-2,0-3.17-1.05-3.37-2.7a7.27,7.27,0,0,1-6,2.9c-3.48,0-5.4-1.92-5.4-5.09,0-3.76,3.33-5.05,8.42-5.52l2.7-.31v-4a9.15,9.15,0,0,0-3.13-.51,8.48,8.48,0,0,0-3.25.51Zm1.76,9A6.9,6.9,0,0,0,142,43.75V40.38l-2.62.35c-3.37.4-4.58,1.1-4.58,2.7C134.75,44.84,135.53,45.67,137.33,45.67Z"/><path class="cls-2" d="M151,30.48H157v3.87c.62-1.84,2.74-4.27,5.09-4.27a15.07,15.07,0,0,1,2.78.24l-.32,4.27-3-.63a5.22,5.22,0,0,0-4.27,2.9v8.26h4.11v3.21H151v-2.9l2.66-.62V33.69H151Z"/><path class="cls-2" d="M167.85,45.12h2.46V33.69h-2.38V30.48h5.63v2a6.23,6.23,0,0,1,5.05-2.39,5.16,5.16,0,0,1,4.9,2.59,6.94,6.94,0,0,1,5.75-2.59c4.11,0,5.56,2.35,5.56,6.66v8.38h2.43v3.21h-8.14V45.12h2.07V37c0-2.23-.63-3.48-2.9-3.48a5.25,5.25,0,0,0-3.83,1.61v10h2.11v3.21h-7.87V45.12h2.16V35.41a3.34,3.34,0,0,0-3.25-1.88,4.86,4.86,0,0,0-3.68,1.57v10H176v3.21h-8.18Z"/><path class="cls-2" d="M213.87,43.9l.94,3.06a14.63,14.63,0,0,1-7,1.8c-5.87,0-8.22-4.23-8.22-9.4,0-5,2.7-9.28,8.38-9.28a15.78,15.78,0,0,1,6.62,1.53l-.75,6.27h-3V33.73a7.65,7.65,0,0,0-2.86-.47c-3.09,0-4.46,2.5-4.46,5.83s1.13,6.22,4.66,6.22A12.24,12.24,0,0,0,213.87,43.9Z"/><path class="cls-2" d="M217.37,45.12h2.5V24.33h-2.58V21.08h6.19V32.16a8.54,8.54,0,0,1,5.83-2.08c4.3,0,6,2.39,6,6.93v8.11h2.46v3.21h-8.92V45.12h2.82V37.37c0-2.39-.55-3.84-3.61-3.84a8,8,0,0,0-4.61,1.61v10h2.77v3.21h-8.88Z"/><path class="cls-2" d="M253.87,43.79l1.21,2.89a12.42,12.42,0,0,1-6.77,2.08c-6,0-8.46-3.92-8.46-9.36,0-5.13,2.63-9.32,8.07-9.32,5.21,0,7.32,3.76,7.32,7.6a14,14,0,0,1-.31,2.94H243.77c0,3,1.45,4.85,4.58,4.85A10.21,10.21,0,0,0,253.87,43.79Zm-2.27-6a3.78,3.78,0,0,0,0-.63,3.59,3.59,0,0,0-3.76-4c-2.9,0-3.91,2-4.07,4.58Z"/><path class="cls-2" d="M272.32,43.9l.94,3.06a14.62,14.62,0,0,1-7,1.8c-5.88,0-8.23-4.23-8.23-9.4,0-5,2.71-9.28,8.38-9.28a15.78,15.78,0,0,1,6.62,1.53l-.75,6.27h-3V33.73a7.65,7.65,0,0,0-2.86-.47c-3.09,0-4.46,2.5-4.46,5.83s1.13,6.22,4.66,6.22A12.24,12.24,0,0,0,272.32,43.9Z"/><path class="cls-2" d="M289.16,45.28l-3.79-5.49-2.94,2.47v2.86h3.41v3.21h-9.67V45.12h2.62V24.33h-2.7V21.08h6.34V39.25l6.69-5.56h-2.85V30.48h9.51v3.21H293L288,38l5.09,7.17h3.4v3.21h-7.36Z"/><path class="cls-2" d="M90,44.67c2.88,0,4.36-1,4.36-3.54s-2.12-3.73-5.92-4.43c-6-1.1-8.66-2.84-8.66-8S83,20.8,87.6,20.8a9.43,9.43,0,0,1,6.87,2.73l.32-2.34H98l-.78,8.56H93.91c0-.6-.52-5.06-5.82-5-2.88,0-4.5,1.36-4.42,3.78.1,3.57,2.14,4.16,5.68,4.82,6,1.14,8.68,2.73,8.68,7.93s-3.28,7.31-7.91,7.31c-2.33,0-5.1-.39-6.89-2.38l-.44,2.34H79.47L81,40h3c.24,1.56.23,1.09.39,1.56C85.05,43.81,87.34,44.67,90,44.67Z"/></svg>